<svg version="1" xmlns="http://www.w3.org/2000/svg" width="933.333" height="933.333" viewBox="0 0 700.000000 700.000000"><path d="M0 350v350h700v-77H77V0H0v350z"/><path d="M650 126.4c-.3.2-33.8 8.8-74.5 19.1-40.7 10.2-74.9 18.9-75.9 19.3-1.7.7-1.1 1.4 4 5.3 31.8 24.4 42.3 32.5 44.5 34.3l2.6 2.2-2.6 3.1c-1.4 1.6-3.3 3.9-4.1 4.9-.8 1-6 7.3-11.5 13.9-5.5 6.6-10.7 12.9-11.7 14-9.3 11.3-38.9 47-41.8 50.5-2.1 2.5-5.4 6.5-7.5 9-4 4.9-8.3 10.1-14.2 17-2.1 2.5-5.4 6.5-7.3 8.9-1.9 2.3-4.3 5.3-5.4 6.4-1 1.2-2.7 3.3-3.7 4.6l-1.9 2.3-4.2-3.3c-2.4-1.9-5-4-5.8-4.6-2.4-2-34.2-27.2-37.9-30.1-1.9-1.5-6.8-5.4-11-8.8-4.2-3.3-14.3-11.4-22.5-17.9-8.3-6.5-15.7-12.4-16.5-13.1-.9-.7-5.5-4.3-10.2-8.1-4.8-3.7-10.4-8.2-12.4-9.8a75.5 75.5 0 0 0-4.4-3.3c-.7-.2-3.3 2.6-18.1 19.8-4.4 5.2-9.1 10.6-10.4 12-1.2 1.4-4.6 5.4-7.6 9-3 3.6-5.7 6.7-6 7-.3.3-3 3.4-6 7s-5.7 6.7-6 7c-.3.3-5.7 6.6-12 14s-12.7 14.8-14.1 16.5c-2.5 2.8-15.3 17.6-20.3 23.5-1.1 1.4-4.6 5.4-7.6 9-3 3.5-6.4 7.5-7.5 8.8-1.1 1.3-2.9 3.4-4 4.6-1.1 1.2-3.8 4.4-6 7-2.2 2.7-4.9 5.8-6 7.1-1.1 1.2-3.1 3.5-4.5 5.1-5.5 6.5-14.5 16.9-15 17.4-.3.3-2.7 3.2-5.5 6.5-2.7 3.3-5.2 6.2-5.5 6.5-.3.3-3 3.4-6 7s-7 8.1-8.8 10l-3.2 3.5 4.8 4.5c2.7 2.5 11.6 10.2 19.8 17.2 8.2 6.9 15.9 13.6 17.2 14.8 1.2 1.2 2.7 2 3.1 1.8.5-.2 5.5-5.7 11.2-12.3 5.6-6.6 12.6-14.7 15.4-18 2.9-3.3 12.3-14.3 21-24.5 17.9-21 20.8-24.3 27.5-32 2.6-3 13.2-15.4 23.5-27.5 19.8-23.2 26.3-30.8 30.7-35.9 1.5-1.7 4.7-5.4 7-8.3 2.4-2.8 4.9-5.4 5.7-5.8 1.1-.4 4.2 1.7 17.1 12.2 2.2 1.8 18 14.3 22.5 17.8 2.1 1.6 5.5 4.3 7.5 6 2 1.6 5.2 4.2 7.1 5.6 4.4 3.5 64.5 51.2 68.4 54.4 1.7 1.4 3.3 2.5 3.7 2.5.6 0 5.3-5.3 13.7-15.5.9-1.1 4.1-5 7.1-8.6 3-3.6 7-8.4 8.8-10.7 1.9-2.2 4.3-5.1 5.4-6.4 3.1-3.7 4.9-5.9 12.3-14.8 3.8-4.7 7.2-8.7 7.5-9 .3-.3 7.1-8.4 15.1-18 13.8-16.8 56.1-67.7 63.9-77 2.1-2.5 6.6-7.9 10-12 3.5-4.1 6.7-7.4 7.3-7.2.9.3 22.4 16.8 23.7 18.2.3.3 3.2 2.5 6.5 5s9.6 7.4 14 10.9l8 6.3.3-39.6c.3-51.1-.2-118.9-.8-118.2z"/></svg>